<svg xmlns="http://www.w3.org/2000/svg" version="1.0" width="235.000000pt" height="73.000000pt" viewBox="0 0 235.000000 73.000000" preserveAspectRatio="xMidYMid meet">

<g transform="translate(0.000000,73.000000) scale(0.100000,-0.100000)" fill="#215273" stroke="none">
<path d="M347 431 c-30 -104 -40 -121 -69 -121 -20 0 -21 -1 -12 -24 3 -9 12 -16 19 -16 22 0 43 34 61 100 25 94 34 95 34 5 0 -137 20 -139 84 -10 42 84 45 87 38 45 -18 -121 0 -161 58 -128 17 9 30 13 30 8 0 -22 42 -21 66 1 19 18 24 19 24 6 0 -8 -19 -28 -42 -44 -62 -42 -65 -102 -5 -103 27 0 64 43 77 89 8 29 19 45 40 56 17 9 30 20 30 25 0 6 -11 3 -25 -6 -14 -9 -27 -15 -30 -13 -2 3 0 22 5 44 15 66 13 95 -9 95 -14 0 -20 -10 -25 -37 -7 -47 -42 -106 -59 -100 -7 2 -11 8 -10 13 0 5 4 35 8 67 7 53 6 57 -13 57 -17 0 -21 -9 -27 -52 -9 -62 -20 -88 -40 -88 -24 0 -25 14 -9 109 9 50 13 98 10 107 -13 33 -38 6 -79 -83 -23 -50 -46 -95 -50 -99 -4 -4 -7 33 -7 82 0 87 -8 114 -34 114 -6 0 -24 -45 -39 -99z m318 -208 c-8 -36 -29 -57 -49 -50 -22 9 -20 20 10 51 34 34 48 33 39 -1z" fill="#215273"/>
<path d="M890 517 c-34 -17 -36 -70 -2 -75 22 -3 30 12 12 23 -16 10 8 45 31 45 15 0 18 -5 15 -22 -19 -88 -36 -200 -31 -208 3 -6 12 -10 20 -10 13 0 17 12 31 93 6 34 9 37 40 37 19 0 34 5 34 10 0 6 -13 10 -30 10 -32 0 -36 11 -24 58 6 19 11 22 33 17 14 -4 47 -8 73 -11 38 -3 48 0 48 12 0 20 -8 21 -125 28 -72 4 -107 2 -125 -7z" fill="#215273"/>
<path d="M1081 377 c-6 -36 -8 -72 -5 -81 8 -21 39 -29 63 -17 13 7 22 8 26 1 14 -23 31 -6 48 49 20 62 32 81 55 81 11 0 13 -11 7 -56 -9 -77 21 -109 66 -68 17 15 19 15 34 0 9 -9 24 -16 32 -16 9 0 24 7 34 16 17 15 19 15 34 0 19 -19 37 -20 53 -4 9 9 15 9 24 0 22 -22 34 -12 47 37 14 56 36 91 56 91 12 0 14 -14 12 -61 -2 -49 2 -64 15 -72 13 -9 23 -7 46 10 27 20 28 20 51 2 30 -24 58 -24 99 1 29 18 35 19 48 6 8 -8 23 -18 34 -21 29 -9 88 13 102 38 11 21 10 21 -9 4 -34 -29 -103 -18 -103 18 0 6 19 17 43 25 31 11 43 21 45 39 4 28 -12 41 -51 41 -38 0 -75 -39 -83 -89 -5 -32 -12 -43 -29 -47 -64 -16 -101 24 -76 84 21 50 67 51 54 1 -7 -24 13 -25 26 -2 15 27 -5 53 -40 53 -44 0 -89 -48 -89 -93 0 -32 -13 -47 -41 -47 -4 0 -7 30 -6 67 2 59 0 68 -17 71 -10 2 -31 -6 -47 -17 -29 -21 -29 -21 -29 -1 0 13 -7 20 -20 20 -16 0 -20 -7 -21 -32 -1 -55 -21 -103 -44 -103 -22 0 -23 9 -11 86 l8 46 -54 1 c-64 1 -95 -22 -104 -80 -7 -38 -29 -67 -42 -54 -4 5 -7 36 -7 69 0 57 -2 62 -23 65 -15 2 -33 -5 -48 -19 l-24 -22 0 21 c0 15 -6 22 -20 22 -16 0 -20 -7 -21 -32 -1 -55 -21 -103 -44 -103 -18 0 -20 5 -16 45 7 79 6 84 -10 88 -13 2 -19 -10 -28 -61z m927 36 c4 -13 -32 -53 -48 -53 -15 0 -12 23 6 48 16 23 35 25 42 5z m-538 -18 c0 -43 -27 -97 -47 -93 -41 7 -15 118 27 118 15 0 20 -7 20 -25z" fill="#215273"/>
</g>
</svg>